<?xml version="1.0" encoding="UTF-8" standalone="no"?>
<!-- Created with Inkscape (http://www.inkscape.org/) -->

<svg
   xmlns:dc="http://purl.org/dc/elements/1.1/"
   xmlns:cc="http://creativecommons.org/ns#"
   xmlns:rdf="http://www.w3.org/1999/02/22-rdf-syntax-ns#"
   xmlns:svg="http://www.w3.org/2000/svg"
   xmlns="http://www.w3.org/2000/svg"
   xmlns:sodipodi="http://sodipodi.sourceforge.net/DTD/sodipodi-0.dtd"
   xmlns:inkscape="http://www.inkscape.org/namespaces/inkscape"
   width="55.16"
   height="30.940001"
   id="svg3236"
   version="1.1"
   inkscape:version="0.48.1 r9760"
   sodipodi:docname="ic_chat_msg_status_new.svg">
  <defs
     id="defs3238" />
  <sodipodi:namedview
     id="base"
     pagecolor="#ffffff"
     bordercolor="#666666"
     borderopacity="1.0"
     inkscape:pageopacity="0.0"
     inkscape:pageshadow="2"
     inkscape:zoom="1"
     inkscape:cx="-10.570929"
     inkscape:cy="-67.403074"
     inkscape:document-units="px"
     inkscape:current-layer="layer1"
     showgrid="false"
     fit-margin-top="0"
     fit-margin-left="0"
     fit-margin-right="0"
     fit-margin-bottom="0"
     inkscape:window-width="1920"
     inkscape:window-height="1026"
     inkscape:window-x="0"
     inkscape:window-y="0"
     inkscape:window-maximized="1" />
  <metadata
     id="metadata3241">
    <rdf:RDF>
      <cc:Work
         rdf:about="">
        <dc:format>image/svg+xml</dc:format>
        <dc:type
           rdf:resource="http://purl.org/dc/dcmitype/StillImage" />
        <dc:title />
      </cc:Work>
    </rdf:RDF>
  </metadata>
  <g
     inkscape:label="Ebene 1"
     inkscape:groupmode="layer"
     id="layer1"
     transform="translate(-157.4995,-65.46211)">
    <g
       transform="translate(-210.6545,-118.17689)"
       style="fill:#b3b3b3"
       id="g3187">
      <g
         style="fill:#b3b3b3"
         id="Mail">
        <g
           style="fill:#b3b3b3"
           id="g870">
          <g
             style="fill:#b3b3b3"
             id="g872">
            <path
               id="path874"
               d="m 412.51,211.853 c 0.354,0.375 0.645,0.26 0.645,-0.256 v -24.754 c 0,-0.516 -0.321,-0.664 -0.714,-0.329 l -12.536,10.671 c -0.394,0.334 -0.425,0.914 -0.07,1.289 l 12.675,13.379 z"
               inkscape:connector-curvature="0"
               style="fill:#b3b3b3" />
          </g>
          <g
             style="fill:#b3b3b3"
             id="g876">
            <path
               id="path878"
               d="m 410.761,184.249 c 0.394,-0.334 0.292,-0.607 -0.223,-0.607 h -40.092 c -0.515,0 -0.614,0.271 -0.219,0.602 l 19.701,16.524 c 0.396,0.331 1.041,0.329 1.434,-0.006 l 19.399,-16.513 z"
               inkscape:connector-curvature="0"
               style="fill:#b3b3b3" />
          </g>
          <g
             style="fill:#b3b3b3"
             id="g880">
            <path
               id="path882"
               d="m 368.154,211.597 c 0,0.516 0.29,0.631 0.645,0.256 l 12.625,-13.326 c 0.354,-0.375 0.321,-0.951 -0.074,-1.283 l -12.477,-10.465 c -0.396,-0.332 -0.719,-0.181 -0.719,0.335 v 24.483 z"
               inkscape:connector-curvature="0"
               style="fill:#b3b3b3" />
          </g>
          <g
             style="fill:#b3b3b3"
             id="g884">
            <path
               id="path886"
               d="m 392.28,203.674 c -0.393,0.335 -0.979,0.759 -1.302,0.943 0,0 0,0 -0.324,0 -0.321,0 -0.321,0 -0.321,0 -0.32,-0.181 -0.905,-0.6 -1.301,-0.931 l -4.086,-3.428 c -0.396,-0.332 -1.009,-0.297 -1.363,0.078 l -12.847,13.561 c -0.354,0.375 -0.223,0.682 0.293,0.682 h 39.25 c 0.516,0 0.647,-0.307 0.293,-0.682 l -12.883,-13.599 c -0.354,-0.374 -0.966,-0.407 -1.358,-0.073 l -4.051,3.449 z"
               inkscape:connector-curvature="0"
               style="fill:#b3b3b3" />
          </g>
        </g>
      </g>
      <g
         id="g5471"
         style="fill:#b3b3b3">
        <path
           style="fill:#b3b3b3"
           inkscape:connector-curvature="0"
           d="m 412.51,211.853 c 0.354,0.375 0.645,0.26 0.645,-0.256 v -24.754 c 0,-0.516 -0.321,-0.664 -0.714,-0.329 l -12.536,10.671 c -0.394,0.334 -0.425,0.914 -0.07,1.289 l 12.675,13.379 z"
           id="path5473" />
      </g>
      <g
         id="g5475"
         style="fill:#b3b3b3">
        <path
           style="fill:#b3b3b3"
           inkscape:connector-curvature="0"
           d="m 410.761,184.249 c 0.394,-0.334 0.292,-0.607 -0.223,-0.607 h -40.092 c -0.515,0 -0.614,0.271 -0.219,0.602 l 19.701,16.524 c 0.396,0.331 1.041,0.329 1.434,-0.006 l 19.399,-16.513 z"
           id="path5477" />
      </g>
      <g
         id="g5479"
         style="fill:#b3b3b3">
        <path
           style="fill:#b3b3b3"
           inkscape:connector-curvature="0"
           d="m 368.154,211.597 c 0,0.516 0.29,0.631 0.645,0.256 l 12.625,-13.326 c 0.354,-0.375 0.321,-0.951 -0.074,-1.283 l -12.477,-10.465 c -0.396,-0.332 -0.719,-0.181 -0.719,0.335 v 24.483 z"
           id="path5481" />
      </g>
      <g
         id="g5483"
         style="fill:#b3b3b3">
        <path
           style="fill:#b3b3b3"
           inkscape:connector-curvature="0"
           d="m 392.28,203.674 c -0.393,0.335 -0.979,0.759 -1.302,0.943 0,0 0,0 -0.324,0 -0.321,0 -0.321,0 -0.321,0 -0.32,-0.181 -0.905,-0.6 -1.301,-0.931 l -4.086,-3.428 c -0.396,-0.332 -1.009,-0.297 -1.363,0.078 l -12.847,13.561 c -0.354,0.375 -0.223,0.682 0.293,0.682 h 39.25 c 0.516,0 0.647,-0.307 0.293,-0.682 l -12.883,-13.599 c -0.354,-0.374 -0.966,-0.407 -1.358,-0.073 l -4.051,3.449 z"
           id="path5485" />
      </g>
    </g>
    <path
       sodipodi:type="star"
       style="fill:#ffe500;fill-opacity:1;fill-rule:evenodd;stroke:none"
       id="path3798"
       sodipodi:sides="5"
       sodipodi:cx="-106.42857"
       sodipodi:cy="-104.06"
       sodipodi:r1="19.496206"
       sodipodi:r2="10.722913"
       sodipodi:arg1="1.7178747"
       sodipodi:arg2="2.3461932"
       inkscape:flatsided="false"
       inkscape:rounded="0.2"
       inkscape:randomized="0"
       d="m -109.28572,-84.774283 c -2.47754,-0.367043 -2.86026,-9.874814 -4.64889,-11.628018 -1.78863,-1.753205 -11.30215,-1.945685 -11.71867,-4.415389 -0.41653,-2.4697 8.50763,-5.77175 9.62231,-8.01461 1.11468,-2.24286 -1.6421,-11.35024 0.57802,-12.50956 2.22011,-1.15931 8.11827,6.30768 10.5958,6.67472 2.47754,0.36704 10.287284,-5.06915 12.075913,-3.31594 1.788628,1.7532 -3.49027,9.67011 -3.073747,12.13981 0.416524,2.4697 7.999989,8.217333 6.885309,10.460191 -1.11468,2.242857 -10.275375,-0.331215 -12.495485,0.828102 -2.22012,1.159317 -5.34302,10.147737 -7.82056,9.780694 z"
       transform="matrix(0.22751175,0.70966812,-0.70966812,0.22751175,146.15321,180.24424)"
       inkscape:transform-center-x="0.66406417"
       inkscape:transform-center-y="0.71697852" />
  </g>
</svg>
